<?xml version="1.0" standalone="no"?><!-- Generator: Gravit.io --><svg xmlns="http://www.w3.org/2000/svg" xmlns:xlink="http://www.w3.org/1999/xlink" style="isolation:isolate" viewBox="0 0 712.1 181.8" width="712.1" height="181.8"><defs><clipPath id="_clipPath_EdOkbiiwsKaE6PL8OVxjFMpF2znQqNAz"><rect width="712.1" height="181.8"/></clipPath></defs><g clip-path="url(#_clipPath_EdOkbiiwsKaE6PL8OVxjFMpF2znQqNAz)"><g><path d=" M 278.844 41.586 C 278.844 27.878 269.16 18.303 255.453 18.303 L 243.484 18.303 L 243.484 64.868 L 255.453 64.868 C 269.16 64.868 278.844 55.295 278.844 41.586 Z  M 294.401 41.586 C 294.401 63.346 277.648 79.666 255.453 79.666 L 227.926 79.666 L 227.926 3.507 L 255.453 3.507 C 277.648 3.507 294.401 19.719 294.401 41.586 Z " fill="rgb(255,255,255)"/><path d=" M 306.594 3.507 L 322.154 3.507 L 322.154 79.665 L 306.594 79.665 L 306.594 3.507 Z " fill="rgb(255,255,255)"/><path d=" M 395.486 57.145 C 395.486 74.878 379.384 80.972 366.544 80.972 C 344.239 80.972 335.1 68.35 333.36 55.185 L 349.027 55.185 C 351.096 62.693 355.664 66.5 366.434 66.5 C 375.248 66.5 379.819 63.237 379.819 57.796 C 379.819 52.138 374.487 51.378 361.106 48.441 C 347.506 45.61 335.319 41.15 335.319 26.137 C 335.319 10.145 349.571 2.201 364.042 2.201 C 384.496 2.201 392.982 13.19 394.722 25.812 L 378.948 25.812 C 377.314 20.478 373.507 16.673 364.152 16.673 C 354.903 16.673 350.987 20.589 350.987 25.484 C 350.987 29.944 354.794 31.034 364.803 33.209 C 385.148 37.561 395.486 42.021 395.486 57.145 Z " fill="rgb(255,255,255)"/><path d=" M 460.447 18.303 L 438.468 18.303 L 438.468 79.664 L 422.911 79.664 L 422.911 18.303 L 401.041 18.303 L 401.041 3.507 L 460.447 3.507 L 460.447 18.303 Z " fill="rgb(255,255,255)"/><path d=" M 486.236 38.647 L 501.686 38.647 C 509.846 38.647 513.653 34.73 513.653 28.53 C 513.653 22.219 509.736 18.303 501.686 18.303 L 486.236 18.303 L 486.236 38.647 Z  M 494.83 52.249 L 486.236 52.249 L 486.236 79.665 L 470.678 79.665 L 470.678 3.507 L 503.428 3.507 C 519.745 3.507 529.43 13.19 529.43 28.313 C 529.43 40.715 523.012 48.331 512.348 51.053 L 533.672 79.665 L 514.524 79.665 L 494.83 52.249 Z " fill="rgb(255,255,255)"/><path d=" M 542.057 3.507 L 557.617 3.507 L 557.617 79.665 L 542.057 79.665 L 542.057 3.507 Z " fill="rgb(255,255,255)"/><path d=" M 570.129 41.586 C 570.129 19.174 586.776 2.2 609.516 2.2 C 627.684 2.2 641.829 13.407 646.288 29.618 L 629.644 29.618 C 626.053 21.784 618.765 16.998 609.406 16.998 C 595.37 16.998 585.796 27.332 585.796 41.586 C 585.796 55.839 595.37 66.174 609.406 66.174 C 618.765 66.174 626.053 61.387 629.644 53.554 L 646.288 53.554 C 641.829 69.766 627.684 80.971 609.516 80.971 C 586.776 80.971 570.129 63.999 570.129 41.586 Z " fill="rgb(255,255,255)"/><path d=" M 711.361 18.303 L 689.382 18.303 L 689.382 79.664 L 673.825 79.664 L 673.825 18.303 L 651.955 18.303 L 651.955 3.507 L 711.361 3.507 L 711.361 18.303 Z " fill="rgb(255,255,255)"/><path d=" M 280.585 162.375 L 280.585 177.172 L 223.79 177.172 L 223.79 162.375 L 260.782 115.809 L 225.531 115.809 L 225.531 101.013 L 280.259 101.013 L 280.365 115.809 L 243.269 162.375 L 280.585 162.375 Z " fill="rgb(255,255,255)"/><path d=" M 307.354 115.809 L 307.354 131.149 L 339.993 131.149 L 339.993 145.945 L 307.354 145.945 L 307.354 162.374 L 342.93 162.374 L 342.93 177.172 L 291.797 177.172 L 291.797 101.013 L 342.93 101.013 L 342.93 115.809 L 307.354 115.809 Z " fill="rgb(255,255,255)"/><path d=" M 370.684 136.155 L 386.13 136.155 C 394.29 136.155 398.101 132.238 398.101 126.037 C 398.101 119.726 394.184 115.809 386.13 115.809 L 370.684 115.809 L 370.684 136.155 Z  M 379.278 149.754 L 370.684 149.754 L 370.684 177.171 L 355.124 177.171 L 355.124 101.013 L 387.872 101.013 C 404.193 101.013 413.874 110.694 413.874 125.819 C 413.874 138.222 407.456 145.837 396.794 148.557 L 418.12 177.171 L 398.972 177.171 L 379.278 149.754 Z " fill="rgb(255,255,255)"/><path d=" M 437.6 139.092 C 437.6 153.343 447.826 163.68 461.536 163.68 C 475.243 163.68 485.471 153.343 485.471 139.092 C 485.471 124.84 475.243 114.504 461.536 114.504 C 447.826 114.504 437.6 124.84 437.6 139.092 Z  M 501.248 139.092 C 501.248 161.504 483.947 178.476 461.536 178.476 C 439.122 178.476 421.934 161.504 421.934 139.092 C 421.934 116.679 439.122 99.707 461.536 99.707 C 483.947 99.707 501.248 116.679 501.248 139.092 Z " fill="rgb(255,255,255)"/></g><path d=" M 90.24 180.96 C 78.19 180.97 66.25 178.56 55.15 173.86 C 44.43 169.31 34.69 162.74 26.46 154.5 C 18.23 146.28 11.66 136.54 7.11 125.82 C 2.41 114.72 0 102.78 0 90.73 C 0 78.67 2.41 66.74 7.11 55.64 C 11.66 44.92 18.23 35.18 26.46 26.95 C 34.69 18.72 44.43 12.14 55.15 7.6 C 66.25 2.9 78.19 0.49 90.24 0.49 C 102.3 0.49 114.23 2.9 125.33 7.6 C 136.05 12.14 145.79 18.72 154.02 26.95 C 162.25 35.18 168.82 44.92 173.37 55.64 C 178.07 66.74 180.48 78.67 180.48 90.73 C 180.48 102.78 178.07 114.72 173.37 125.82 C 168.82 136.54 162.25 146.28 154.02 154.5 C 145.79 162.74 136.05 169.31 125.33 173.86 C 114.23 178.56 102.3 180.97 90.24 180.96 Z  M 90.24 176.27 C 78.81 176.27 67.5 173.98 56.98 169.53 C 46.82 165.22 37.59 158.99 29.79 151.18 C 21.98 143.38 15.75 134.15 11.43 123.99 C 6.98 113.46 4.69 102.15 4.7 90.73 C 4.69 79.3 6.98 67.99 11.43 57.47 C 15.75 47.31 21.98 38.07 29.79 30.27 C 37.59 22.47 46.82 16.23 56.98 11.92 C 67.5 7.47 78.81 5.18 90.24 5.19 C 101.67 5.18 112.98 7.47 123.5 11.92 C 133.66 16.23 142.89 22.47 150.7 30.27 C 158.5 38.07 164.74 47.31 169.05 57.47 C 173.5 67.99 175.79 79.3 175.78 90.73 C 175.79 102.15 173.5 113.46 169.05 123.99 C 164.74 134.15 158.5 143.38 150.7 151.18 C 142.89 158.99 133.66 165.22 123.5 169.53 C 112.98 173.98 101.67 176.27 90.24 176.27 Z " fill-rule="evenodd" fill="rgb(19,61,237)"/><path d=" M 90.24 164.99 C 80.32 164.99 70.49 163.01 61.35 159.14 C 52.53 155.4 44.52 150 37.75 143.22 C 30.97 136.45 25.56 128.44 21.82 119.62 C 17.96 110.48 15.98 100.65 15.98 90.73 C 15.98 80.8 17.96 70.98 21.82 61.84 C 25.56 53.02 30.97 45.01 37.75 38.24 C 44.52 31.46 52.53 26.05 61.35 22.31 C 70.49 18.45 80.32 16.46 90.24 16.47 C 100.16 16.46 109.99 18.45 119.13 22.31 C 127.95 26.05 135.96 31.46 142.73 38.24 C 149.51 45.01 154.92 53.02 158.65 61.84 C 162.52 70.98 164.5 80.8 164.5 90.73 C 164.5 100.65 162.52 110.48 158.65 119.62 C 154.92 128.44 149.51 136.45 142.73 143.22 C 135.96 150 127.95 155.4 119.13 159.14 C 109.99 163.01 100.16 164.99 90.24 164.99 Z  M 90.24 160.29 C 80.94 160.29 71.74 158.43 63.18 154.82 C 54.92 151.31 47.41 146.25 41.07 139.9 C 34.72 133.56 29.65 126.05 26.15 117.79 C 22.53 109.22 20.67 100.02 20.68 90.73 C 20.67 81.43 22.53 72.23 26.15 63.67 C 29.65 55.41 34.72 47.9 41.07 41.56 C 47.41 35.21 54.92 30.14 63.18 26.64 C 71.74 23.02 80.95 21.16 90.24 21.17 C 99.53 21.16 108.74 23.02 117.3 26.64 C 125.56 30.14 133.07 35.21 139.41 41.56 C 145.76 47.9 150.82 55.41 154.33 63.67 C 157.95 72.23 159.81 81.43 159.8 90.73 C 159.81 100.02 157.95 109.22 154.33 117.79 C 150.82 126.05 145.76 133.56 139.41 139.9 C 133.07 146.25 125.56 151.31 117.3 154.82 C 108.74 158.43 99.53 160.29 90.24 160.29 Z " fill-rule="evenodd" fill="rgb(19,61,237)"/><path d=" M 148.52 90.73 C 148.52 98.52 146.97 106.23 143.94 113.41 C 141.01 120.33 136.77 126.63 131.45 131.94 C 126.14 137.26 119.85 141.5 112.92 144.43 C 105.74 147.46 98.03 149.01 90.24 149.01 C 82.45 149.01 74.73 147.46 67.55 144.43 C 60.63 141.5 54.34 137.26 49.03 131.94 C 43.71 126.63 39.47 120.33 36.54 113.41 C 33.51 106.23 31.95 98.52 31.96 90.73 C 31.96 75.28 38.1 60.44 49.03 49.52 C 59.95 38.59 74.79 32.45 90.24 32.45 C 98.03 32.44 105.74 34 112.92 37.03 C 119.85 39.96 126.14 44.2 131.45 49.52 C 136.77 54.83 141.01 61.12 143.94 68.04 C 146.97 75.22 148.52 82.94 148.52 90.73 Z  M 143.82 90.73 C 143.83 97.89 142.4 104.99 139.61 111.59 C 136.92 117.95 133.02 123.73 128.13 128.62 C 123.24 133.51 117.46 137.41 111.09 140.1 C 104.49 142.89 97.4 144.32 90.24 144.31 C 83.07 144.32 75.98 142.89 69.38 140.1 C 63.02 137.41 57.24 133.51 52.35 128.62 C 47.46 123.73 43.56 117.95 40.87 111.58 C 38.08 104.98 36.65 97.89 36.66 90.73 C 36.66 76.52 42.31 62.89 52.35 52.84 C 62.4 42.8 76.03 37.15 90.24 37.15 C 97.4 37.14 104.49 38.57 111.09 41.36 C 117.46 44.05 123.24 47.95 128.13 52.84 C 133.02 57.72 136.92 63.51 139.61 69.87 C 142.4 76.47 143.83 83.56 143.82 90.73 Z " fill-rule="evenodd" fill="rgb(19,61,237)"/></g></svg>