<svg version="1.0" xmlns="http://www.w3.org/2000/svg" width="1600" height="1139" viewBox="0 0 16000 11390"><g fill="#fff"><path d="M31 11359l-31-31v-1077l27-29c48-51 80-55 362-49 141 2 268 9 282 15 69 27 79 178 16 231-11 8-72 13-201 14-185 2-186 2-203 27-10 13-21 34-25 45-3 11-6 203-7 426l-1 406-26 27c-24 23-35 26-95 26-62 0-70-2-98-31zm1406 9c-45-40-48-77-45-603 3-449 5-493 21-526 33-66 55-69 437-69 428 0 516 13 629 90 28 19 54 43 57 53 3 9 9 17 14 17 4 0 20 25 35 57 25 50 28 68 28 153 0 79-4 108-23 154-13 31-27 56-31 56s-10 8-14 18c-5 17-61 60-135 103-52 31-142 44-310 44-181 0-216-8-244-56-21-36-20-110 2-148 29-52 70-61 268-61h175l24-26c30-32 40-75 26-117-21-63-92-76-407-77-231 0-252 1-267 18s-17 62-17 445v426l-31 36c-30 34-34 35-98 35-56 0-72-4-94-22zm1820 15c-15-14-6-95 14-140 12-27 25-57 30-68 4-11 20-49 34-85 30-73 33-80 68-165 14-33 41-100 62-150 79-193 104-252 125-305 11-30 27-68 35-85 8-16 24-57 36-90 37-97 94-132 195-122 105 11 122 27 179 172 15 39 33 84 40 100 7 17 23 55 35 85s33 82 47 115c13 33 28 69 33 80 51 125 62 152 71 167 5 10 9 23 9 29 0 7 9 30 19 53 11 23 29 66 41 96 11 30 25 64 30 75 70 157 86 219 59 236-8 5-56 9-108 9-104 0-122-9-149-81-8-19-23-56-33-84-11-27-26-66-33-85-8-19-24-60-35-90-12-30-29-72-36-92-8-21-22-55-30-75-14-38-37-97-76-195-11-29-27-73-35-98-20-57-42-92-54-85-5 3-14 20-19 38s-19 56-30 85c-12 28-30 76-42 105-11 28-25 68-31 87s-17 44-24 55c-8 11-14 26-14 33 0 8-6 28-14 45-7 18-23 59-35 92-32 84-50 133-71 185-10 25-24 60-30 78-7 18-21 44-32 57-18 24-25 25-122 25-56 0-106-3-109-7zm1897-27l-34-34v-1058l25-35c14-19 40-39 58-46 22-8 137-12 367-12 429-1 515 11 627 88 125 85 172 240 123 405-11 37-66 103-102 122-15 8-12 13 20 33 74 46 113 161 92 278-12 72-42 141-65 150-8 3-15 11-15 19s-6 14-14 14-16 6-19 14c-6 16-70 47-154 75-59 20-85 21-469 21h-406l-34-34zm874-246c40-15 52-36 52-93 0-34-6-49-26-68-25-23-32-24-217-30-227-7-240-11-263-84-21-67-7-124 39-157 30-22 42-23 222-26l190-3 28-31c20-22 27-41 27-70 0-54-12-73-62-94-38-16-77-19-320-22-269-3-277-3-297 17s-21 31-21 329c0 317 2 330 40 346 29 11 573-1 608-14zm1025 268c-12-6-27-25-32-42-6-18-11-254-13-551-3-508-3-521 17-555 44-74 181-77 225-5 19 31 20 50 20 348 0 173 3 322 6 331 11 29 35 17 107-58 75-77 99-102 286-306 265-288 319-342 354-358 36-16 126-15 160 1 14 6 31 22 37 35 15 34 14 1076-2 1105-27 52-55 67-127 67-57 0-71-3-89-22-39-42-42-70-42-367 0-158-3-291-6-294-4-3-16-1-28 5-23 12-22 11-246 246-85 90-214 224-285 298l-131 134-94-1c-52 0-105-5-117-11zm2263-14l-26-27v-416c0-376-2-419-18-451l-17-35-150-5c-135-4-153-7-173-26-42-39-51-140-18-186 34-46 58-48 556-48 393 0 476 2 499 15 54 27 78 123 47 184-28 54-35 56-245 61l-196 5-17 35c-16 32-18 75-18 451v415l-28 27c-25 24-36 27-99 27s-73-3-97-26zm1408-5l-29-30v-1087l23-25c34-36 102-53 152-38 22 6 49 21 60 33 19 21 20 35 20 354 0 276 2 334 14 343 21 17 44 3 108-66 29-32 76-82 105-113 28-30 76-82 107-115s75-80 98-105c24-25 90-97 148-160 126-138 136-147 177-166 39-17 122-18 157-3 13 7 30 24 36 38 7 19 10 192 8 572l-3 545-29 27c-25 24-37 27-96 27s-71-3-96-27l-29-27-3-310c-2-171-7-315-11-319-13-13-49 12-105 72-28 29-78 81-111 116-33 34-130 136-215 226s-179 188-208 217l-53 52h-98c-95 0-98-1-127-31zm3186 18c-46-37-45-28-50-479l-5-430-24-19c-20-17-40-19-153-19-141 0-176-10-197-57-16-35-13-109 5-144 27-53 59-59 307-59 216 0 225 1 258 23 19 12 44 42 57 67 21 42 22 55 22 300 0 141-3 372-7 513l-6 256-28 31c-26 28-33 30-96 30-38 0-75-6-83-13zm1867-15l-27-28v-410c0-369-2-412-18-444-14-30-23-36-62-42-25-3-220-7-435-7l-390-1-25-27c-22-23-25-35-25-99 0-85 16-109 81-124 51-12 977-12 1029 0 24 5 51 21 68 40l27 30v1083l-32 29c-28 25-39 28-98 28-60 0-69-3-93-28zm-3185-439c-22-9-42-60-42-107 0-33 6-52 24-73l24-28h433l19 25c14 18 20 41 20 86 0 51-4 64-23 82-22 21-31 22-233 21-115 0-215-3-222-6zM5695 8605c-97-18-241-79-253-107-2-4-8-8-14-8-13 0-128-116-128-129 0-5-4-11-8-13-8-3-50-61-68-93-63-115-78-141-84-150-22-31-127-287-166-405-51-156-62-197-74-267-19-118-28-113 173-113 176 0 344-15 572-51 72-11 173-27 225-35 52-9 142-24 200-35s141-27 185-36c77-14 169-33 360-74 50-11 124-27 165-35 41-9 111-24 155-34s114-26 155-35 111-25 155-35 114-26 155-35c68-15 104-24 275-66 28-6 68-15 90-19 48-9 272-64 370-90 39-11 102-26 140-35 83-20 201-49 305-76 41-11 100-26 130-34 61-15 198-50 275-70 28-7 70-18 95-24 71-18 269-70 330-87 30-9 78-22 105-29 182-49 309-83 385-105 36-10 90-25 120-33 30-9 87-25 125-36 39-12 93-28 120-36 87-25 188-55 250-75 33-10 114-35 180-56 66-20 158-50 205-66 47-15 114-38 150-49 36-12 83-30 106-40 22-11 45-19 52-19 6 0 26-6 44-14s56-23 83-34c91-37 320-134 345-147 153-79 178-89 193-76 9 7 19 34 22 59 4 26 15 90 25 142 68 351 92 693 62 855-16 81-60 205-73 205-5 0-9 6-9 13 0 21-80 106-149 158-114 87-342 188-596 265-44 13-107 33-140 43s-85 26-115 34c-164 46-201 56-260 71-98 26-209 56-264 72-26 8-56 14-65 14s-43 9-76 19c-33 11-85 26-115 35-30 8-86 24-125 35-140 40-192 51-244 51-88 0-224-39-395-114-32-14-63-26-67-26-5 0-44-16-87-35-42-20-93-43-112-51-19-9-48-22-65-29-16-8-70-32-118-54-49-23-90-41-92-41-5 0-230-106-259-121-22-13-13-21-136 136-52 66-99 125-105 132-5 6-21 26-35 44s-41 51-60 74c-19 22-61 76-94 118-32 42-63 77-67 77-5 0-9 7-9 15 0 7-6 18-13 22s-35 35-61 68-76 91-110 129c-54 61-82 90-136 140-20 19-155 86-172 86-7 0-40 9-73 20-33 10-85 26-115 34-230 62-390 104-540 141-30 8-91 23-135 34s-114 27-155 37c-41 9-111 25-155 35-207 47-439 80-557 78-35-1-94-7-133-14z"/><path d="M1680 7284c-415-34-623-73-780-147-141-66-216-143-246-253-15-55-16-74-6-126 19-104 76-202 182-313 72-75 201-185 219-185 6 0 11-4 11-9 0-6 11-16 24-23 14-7 71-44 127-81 56-38 116-76 133-86 17-9 50-29 74-44s53-32 65-38c12-5 40-21 62-34 22-14 47-27 55-31 8-3 24-10 35-17 11-6 47-25 80-42 33-18 69-37 80-43 31-18 454-222 459-222 2 0 39-16 83-36 133-61 187-85 213-96 14-6 39-16 55-23 17-8 55-24 85-36s73-29 95-39 60-26 85-35c25-10 63-25 85-35s60-25 85-35c25-9 65-25 90-35 42-17 84-34 317-124 51-20 98-36 103-36 6 0 29-9 50-20l40-20v-68c0-152 47-551 91-772 47-237 94-353 204-498 78-104 244-276 326-339 27-20 49-41 49-45s7-8 15-8c7 0 18-6 22-13 12-20 157-117 283-189 89-52 440-224 565-278 94-41 242-100 355-142 30-11 64-24 75-29 24-10 73-28 175-63 41-14 89-31 105-37 17-6 66-22 110-36s103-34 130-44c28-10 104-34 170-54s140-42 165-49c124-38 292-86 390-111 36-9 97-25 135-35 39-10 97-25 130-34 33-8 96-24 140-35s114-27 155-37c41-9 111-25 155-35 80-18 131-29 320-67 55-12 134-28 175-37 41-8 85-15 97-15s61-9 110-19c94-20 181-35 333-56 52-7 127-18 165-24 536-79 1182-105 1511-61 82 11 176 27 209 36 111 28 210 56 245 69 217 81 362 151 482 233 26 17 50 32 54 32 8 0 78 53 82 63 2 4 8 7 14 7 5 0 35 21 66 47 31 27 70 59 86 73 57 49 149 145 189 199 71 96 127 192 260 443l30 56 51-4c28-2 134-10 236-18 614-50 1159-66 1545-46 703 37 1058 95 1310 215 212 101 257 249 130 430-62 88-146 165-340 312-16 12-127 86-155 103-14 8-52 31-83 50-69 42-161 94-202 115-16 9-61 33-100 55-72 41-400 205-515 258-36 16-99 45-140 65-41 19-160 71-265 117-104 45-203 88-220 95-39 18-87 38-155 65-30 12-73 30-95 40s-58 24-80 33c-22 8-69 27-105 42-36 14-74 30-85 34-11 5-42 17-70 29-27 11-70 28-95 37s-65 25-90 35-65 26-90 35c-43 16-89 35-175 69-22 9-78 30-125 47-126 46-258 95-320 119-30 12-73 27-95 35s-85 30-140 50-118 43-140 50c-22 8-71 26-110 40-38 15-108 39-155 55s-157 54-245 85-194 67-235 80c-41 14-88 29-105 35-57 21-590 197-710 235-66 20-145 45-175 55-30 9-82 25-115 34-33 10-87 26-120 36-56 16-160 46-265 75-25 7-81 22-125 35-154 42-277 75-395 104-30 8-91 23-135 34-44 12-111 28-150 37-38 9-101 25-140 34-38 10-104 26-145 35-41 10-111 26-155 36s-116 26-160 35c-44 10-116 26-160 36-97 22-230 51-345 73-47 9-125 25-175 36-49 10-130 26-180 35-49 9-133 24-185 35-52 10-140 26-195 35s-145 25-200 35c-55 11-147 26-205 35s-154 25-215 35c-60 10-162 26-225 35-63 8-173 24-245 35-282 42-877 113-1195 144-818 79-1469 117-2080 121-239 2-455 1-480-1zm1796-729l200-18-3-56c-2-31-10-121-18-201s-18-315-21-523c-4-207-11-377-15-377-5 0-23 6-41 14-45 19-124 51-178 71-25 9-65 25-90 35l-100 40c-30 12-68 27-85 35-16 7-91 39-165 70-74 32-146 63-160 70s-56 27-95 45c-264 121-566 286-631 345-6 5-24 22-40 36-74 66-124 146-124 196 0 106 167 181 485 218 77 9 149 18 160 20 64 11 740-4 921-20zm962-99c53-8 130-19 170-25 41-5 75-11 76-13 2-2-3-48-10-103-43-324-77-700-71-783 13-186 76-403 150-514 16-24 16-28 3-28-8 0-30 6-48 14s-87 31-153 51-136 43-155 51c-19 7-65 23-101 35l-66 21-6 156c-10 223-9 449 2 555 6 51 15 182 21 292s13 224 16 253c5 52 6 52 40 52 19 0 79-7 132-14zm740-112c24-4 46-13 49-22 3-8-4-67-15-131-44-236-52-315-52-506 0-151 4-205 19-265 23-93 70-195 120-258 32-40 123-109 196-148 33-18 184-61 275-79 47-9 121-25 165-35s114-26 155-35c146-31 266-68 337-102 41-20 62-73 42-109-11-22-18-24-88-24-44 0-106 8-146 19-38 11-101 26-140 34-161 35-276 62-375 89-58 16-118 33-135 37-64 17-244 112-253 134-2 4-8 7-14 7-11 0-143 133-186 186-37 46-103 189-123 267-32 119-35 223-10 387 32 217 51 336 67 430 26 149 24 142 47 136 12-3 42-8 65-12zm-608-1642c162-55 349-116 415-137 66-20 145-45 175-55s82-26 115-36c33-9 85-25 115-35 30-9 82-25 115-34 33-10 85-25 115-35s82-25 115-35c33-9 89-25 125-36 196-58 309-91 430-124 74-20 164-45 200-55s94-26 130-35 99-26 140-37 98-26 125-33c28-8 86-23 130-35 44-11 105-27 135-34 30-8 93-24 140-36 156-39 194-49 285-70 50-12 115-27 145-35s93-23 140-34 123-29 170-40 119-27 160-37c41-9 111-25 155-35 126-28 352-78 485-105 41-8 113-23 160-34 47-10 123-26 170-35s128-25 180-35c52-11 136-27 185-35 50-9 133-24 185-35 52-10 140-26 195-35s147-25 205-35c159-28 333-57 450-75 58-9 146-23 195-31 50-8 126-19 170-24s105-14 135-19 90-13 133-16c42-4 77-11 77-17s-11-24-25-42c-14-17-29-35-33-41-112-152-293-341-395-415-26-18-47-37-47-42 0-4-5-8-10-8-6 0-16-4-23-10-53-43-76-60-81-60-3 0-28-15-54-32-73-50-88-58-166-83-194-62-370-89-687-105-314-16-836 9-1174 56-60 9-144 19-185 24-41 4-118 15-170 24s-140 23-195 32-143 25-195 35c-52 11-131 26-175 35-113 23-320 71-475 113-41 10-100 26-131 34s-78 22-105 31-103 32-169 52c-66 19-135 42-153 50s-39 14-46 14-35 9-62 19c-27 11-107 41-179 66-145 52-230 84-320 121-33 14-69 29-80 33-288 115-635 286-848 417-48 30-90 54-93 54-2 0-10 5-17 10-7 6-53 39-104 73-210 145-405 336-470 462-72 140-117 325-148 600-19 173-19 169 3 162 9-4 150-51 312-105zm7097 18c49-16 111-38 138-48 121-47 115-39 89-107-9-22-19-53-24-70-4-16-16-52-25-80-10-27-23-66-30-85s-20-57-30-85c-9-27-21-63-25-80-10-34-39-115-70-195-12-30-25-67-30-81-4-15-15-42-23-60-8-19-34-79-57-134s-58-130-77-167c-31-61-37-67-61-63-15 2-81 11-147 20s-169 25-230 36c-60 11-125 19-142 19-18 0-33 4-33 8s22 24 48 44c50 39 138 122 185 176 86 100 153 225 232 432 9 25 25 65 35 90 24 63 40 110 50 145 4 17 14 46 23 65 8 19 23 55 32 80 42 111 70 170 81 170 2 0 43-13 91-30zm923-351c25-12 61-28 80-36 37-16 56-24 165-73 167-76 274-127 328-157 33-18 64-33 70-33 7 0 23-9 37-20s28-20 32-20c5 0 153-85 236-135 71-43 244-171 287-212 77-74 122-154 111-198-30-120-274-179-736-178-296 1-507 13-987 59l-51 5 44 102c25 56 65 154 90 217s48 124 53 135c28 69 140 405 167 503 10 34 20 62 23 62s26-10 51-21z"/><path d="M5130 4329c0-18 55-123 95-179 184-263 416-437 690-517 86-25 207-57 300-78 39-9 102-24 140-34 39-10 104-26 145-35 41-10 111-26 155-38 44-11 105-26 135-33s87-21 125-30c39-10 86-21 105-25s58-13 85-20c133-33 216-53 280-70 39-9 104-25 145-34 41-10 111-26 155-37s105-26 135-34c30-7 78-19 105-25 28-7 75-18 105-25 70-16 137-33 225-55 39-9 104-25 145-34 41-10 107-25 145-35 39-10 104-26 145-35 41-10 111-26 155-38 44-11 105-26 135-33s98-24 150-37c84-20 118-23 290-22 200 1 247 8 420 64 136 44 369 174 370 206 0 6-27 14-62 17s-94 13-133 21c-38 8-108 22-155 31s-121 25-165 35-116 26-160 35c-44 10-110 26-147 36-36 11-74 19-84 19-9 0-40 7-68 14-28 8-91 24-141 36-49 12-124 30-165 40s-106 26-145 35c-38 9-101 25-140 35-38 10-101 26-140 35-38 9-101 25-140 35-38 10-104 26-145 35-41 10-95 24-120 31s-85 22-135 34c-49 11-121 29-160 39-38 11-104 27-145 36s-109 25-150 36c-41 10-104 25-140 33s-105 24-155 36c-49 12-128 30-175 41s-110 26-140 34c-30 7-127 29-215 50-157 36-280 66-360 87-22 6-58 14-80 18-44 8-248 59-360 90-38 10-99 26-135 35-63 16-164 43-265 70-94 26-320 99-329 107-14 11-26 10-26-3zM2790 3144c0-10-6-36-14-59-35-104-50-153-57-185-7-35-60-219-78-275-6-16-22-70-36-120-14-49-35-125-47-167l-23-77-160-52c-88-28-182-60-210-70-27-9-138-46-245-80s-204-66-214-72c-18-9-18-10 5-23 13-7 31-13 40-14 9 0 38-9 65-19s103-36 169-56 131-41 145-47c25-10 73-26 292-96 89-28 118-41 118-54 0-10 8-41 19-70 10-29 26-82 36-118s26-94 36-130c11-36 26-87 34-115 15-54 43-150 74-255 11-36 28-93 38-127 10-35 22-61 27-60 10 3 13 11 41 117 9 36 25 90 35 120s26 84 35 120c10 36 26 94 37 130 10 36 26 90 34 120 23 81 49 168 69 230l17 55 221 73c122 40 283 93 357 117 127 41 154 50 240 80l35 13-40 16c-22 9-56 21-75 26-19 4-51 14-70 21-92 32-144 49-255 84-66 21-131 42-145 47-14 6-38 14-55 18-16 4-52 16-80 26-27 9-69 24-92 32-34 12-44 21-57 56-9 23-16 49-16 58s-9 40-19 70c-10 29-27 82-36 118-16 60-36 129-69 240-16 55-48 166-80 280-22 78-46 117-46 74zm1966-1642c-6-10-44-144-55-192-4-19-15-55-23-80-9-25-24-74-33-110-10-36-26-93-37-126l-20-62-131-42c-73-23-154-50-182-60-27-10-90-30-139-45-81-25-88-29-70-42 10-7 37-18 59-24s63-19 90-29c28-10 123-41 211-70l161-53 21-61c11-34 28-90 37-126s25-90 35-120c17-54 35-116 60-213 7-26 18-46 23-44 6 2 17 23 24 48 7 24 22 73 33 109 20 68 33 114 70 245 12 44 29 98 36 121l15 41 162 53c89 29 184 61 211 71s54 19 60 19c22 0 96 35 93 44-2 6-14 13-28 17-74 21-168 51-199 63-30 12-251 82-286 92-15 3-37 66-99 289-42 152-86 295-90 295-2 0-6-4-9-8z"/></g></svg>