<svg version="1.1" id="Слой_1" xmlns="http://www.w3.org/2000/svg" xmlns:xlink="http://www.w3.org/1999/xlink" x="0px" y="0px"
	 width="131.3px" height="24.4px" viewBox="0 0 131.3 24.4" enable-background="new 0 0 131.3 24.4" xml:space="preserve">
<path fill-rule="evenodd" clip-rule="evenodd" fill="#FFFFFF" stroke="#FFFFFF" stroke-width="0.5" stroke-miterlimit="10" d="
	M112.5,13.2c0.2,1.9,0.9,3.6,2.1,5.1c0.7,0.9,1.6,1.6,2.6,2.1c1,0.5,2.1,0.8,3.2,0.9c1.1,0,2.1-0.2,3.1-0.5c1-0.4,1.9-1,2.6-1.7
	c1.6-1.6,2.5-3.6,2.7-5.8h2.2c-0.2,2.3-1.1,4.5-2.5,6.2c-1.6,2-3.8,3.3-6.3,3.7c-2.5,0.4-5.1-0.2-7.2-1.7c-1.3-0.9-2.4-2.1-3.2-3.5
	c-0.8-1.4-1.3-2.9-1.5-4.4c0-0.1,0-0.3,0-0.4L112.5,13.2z"/>
<path fill-rule="evenodd" clip-rule="evenodd" fill="#FFFFFF" stroke="#FFFFFF" stroke-width="0.5" stroke-miterlimit="10" d="
	M118.8,3.3c-1.5,0.4-2.8,1.2-3.9,2.3c-1.1,1.1-1.8,2.4-2.2,3.9c-0.2,0.6-0.3,1.3-0.3,1.9h-2.2c0.1-2.5,1.1-4.8,2.7-6.7
	c1.6-1.9,3.8-3.2,6.3-3.6c1.3-0.2,2.6-0.1,3.9,0.2c1.3,0.3,2.4,0.9,3.5,1.7c1.3,1,2.3,2.2,3.1,3.6c0.8,1.4,1.2,3,1.3,4.6
	c0,0.1,0,0.2,0,0.2h-2.2c-0.1-1.4-0.5-2.7-1.1-3.9c-0.6-1.2-1.6-2.2-2.7-3c-0.9-0.6-1.9-1.1-3-1.3C121,3,119.9,3,118.8,3.3
	L118.8,3.3z"/>
<path fill-rule="evenodd" clip-rule="evenodd" fill="#FFFFFF" stroke="#FFFFFF" stroke-width="0.5" stroke-miterlimit="10" d="
	M61.7,1.3c0.8,0,1.6,0,2.5,0c2.2,5.7,4.6,11.4,6.9,17.1c2.2-5.7,4.6-11.4,6.9-17.1c0.8-0.1,1.6,0,2.4,0c-3,7.5-6.2,15-9.3,22.5
	c-0.2-0.4-0.4-0.7-0.5-1.1C67.6,15.6,64.6,8.5,61.7,1.3z"/>
<path fill-rule="evenodd" clip-rule="evenodd" fill="#FFFFFF" stroke="#FFFFFF" stroke-width="0.5" stroke-miterlimit="10" d="
	M93.2,1.3c0.7-0.3,1.5-0.7,2.2-1c0,7.5,0,15,0,22.5c-0.7,0-1.4,0-2.2,0V1.3z"/>
<path fill-rule="evenodd" clip-rule="evenodd" fill="#FFFFFF" stroke="#FFFFFF" stroke-width="0.5" stroke-miterlimit="10" d="
	M15,11.5C13.7,8.1,12.4,4.7,11,1.3c-0.7,0-1.5,0-2.2,0c-1.4,3.3-3,7.5-4.1,10.1c-0.2,0.5-0.4,1.1-0.6,1.6h2.3c1.2-3,2.3-5.9,3.5-8.9
	c1.4,3.6,2.8,7.1,4.2,10.6c-3.5,0-7,0-10.5,0c-1.1,2.7-2.2,5.4-3.2,8.1h2.3c0.8-2.1,1.7-4.1,2.5-6.2c3.2-0.1,6.4,0,9.6,0
	c0.8,2.1,1.6,4.2,2.5,6.2h2.4C18.1,19.1,16.5,15.3,15,11.5z"/>
<path fill-rule="evenodd" clip-rule="evenodd" fill="#FFFFFF" stroke="#FFFFFF" stroke-width="0.5" stroke-miterlimit="10" d="
	M34.8,22.9c0-5.9,0-11.9,0-17.8C35.4,6,35.9,7,36.5,7.9c2.9,4.1,7.1,10.2,10.5,14.9h2V1.3h-2.1v18.2c-0.6-1.2-1.2-2.3-2-3.3
	c-3.5-5-7-9.9-10.4-14.9c-0.6,0-1.2,0-1.8,0c0,7.2,0,14.4,0,21.5L34.8,22.9z"/>
</svg>
