<?xml version="1.0" encoding="UTF-8"?> <svg xmlns="http://www.w3.org/2000/svg" viewBox="0 0 942.92 132"> <defs> <style>.cls-1{fill:#ed6000;}.cls-2{fill:#fa0;}.cls-3{fill:#0c0703;}</style> </defs> <title>logo_black</title> <g id="Слой_2" data-name="Слой 2"> <g id="Слой_1-2" data-name="Слой 1"> <polygon class="cls-1" points="77.11 126.51 127.88 28.87 100.28 6.15 77.11 126.51"></polygon> <polygon class="cls-2" points="0 22.69 74.25 132 92.81 0 0 22.69"></polygon> <path class="cls-3" d="M206.63,44.65h30.76a3.7,3.7,0,1,0,0-7.4H206.63a3.7,3.7,0,1,0,0,7.4Zm-1.31,69.2h36.19a3.7,3.7,0,1,0,0-7.4H209V76.16H231.2a3.7,3.7,0,0,0,0-7.4H205.32a3.7,3.7,0,0,0-3.7,3.7v37.7A3.7,3.7,0,0,0,205.32,113.85Z"></path> <path class="cls-3" d="M511.33,39.34a3.31,3.31,0,0,0-.24-.39,3.68,3.68,0,0,0-.5-.58,3.46,3.46,0,0,0-.57-.47,3.58,3.58,0,0,0-.4-.23l-.21-.09a3.54,3.54,0,0,0-.71-.21,3.72,3.72,0,0,0-1.37,0,3.18,3.18,0,0,0-.7.19l-.24.11a3.43,3.43,0,0,0-.39.24,3.9,3.9,0,0,0-.61.49,3.48,3.48,0,0,0-.47.58c-.09.13-.14.23-.23.39L471,108.54a3.7,3.7,0,0,0,6.65,3.24L508,49.4l30.37,62.37a3.7,3.7,0,1,0,6.65-3.24Z"></path> <path class="cls-3" d="M939.16,114.65a3.76,3.76,0,0,1-3.29-1.92l-26.45-47.2h6.23c1.24,0,12.19-.72,12.19-10.17,0-3.57-.95-6.17-2.9-7.94-3.67-3.33-9.82-2.84-9.88-2.83l-.36,0h-21v66.07a3.77,3.77,0,0,1-7.54,0V41.47a4.35,4.35,0,0,1,1.28-3.13A4.9,4.9,0,0,1,891,37.07h23.51c1.47-.11,9.73-.43,15.46,4.77,3.57,3.24,5.37,7.79,5.37,13.52,0,10.2-7.24,15-13.7,16.78L942.44,109a3.77,3.77,0,0,1-3.28,5.62Z"></path> <path class="cls-3" d="M821.68,111.81a3.31,3.31,0,0,0,.24.39,3.68,3.68,0,0,0,.5.58,3.46,3.46,0,0,0,.57.47,3.58,3.58,0,0,0,.4.23l.21.09a3.54,3.54,0,0,0,.71.21,3.72,3.72,0,0,0,1.37,0,3.18,3.18,0,0,0,.7-.19l.24-.11a3.43,3.43,0,0,0,.39-.24,3.9,3.9,0,0,0,.61-.49,3.48,3.48,0,0,0,.47-.58c.09-.13.14-.23.23-.39L862,42.6a3.7,3.7,0,0,0-6.65-3.24L825,101.74,794.64,39.37A3.7,3.7,0,1,0,788,42.6Z"></path> <path class="cls-3" d="M632.26,68a3.7,3.7,0,0,0-3.7,3.7V97.21a30.63,30.63,0,0,1-21.16,8.43,30.9,30.9,0,1,1,5.66-61.28,3.7,3.7,0,0,0,1.36-7.27,38.3,38.3,0,1,0-7,76,38,38,0,0,0,27.34-11.48,4.67,4.67,0,0,0,1-1.58,5,5,0,0,0,.18-1.62V71.65A3.7,3.7,0,0,0,632.26,68Z"></path> <path class="cls-3" d="M675.59,110.16V72.46a3.7,3.7,0,0,1,3.7-3.7h25.88a3.7,3.7,0,1,1,0,7.4H683v30.3h32.49a3.7,3.7,0,1,1,0,7.4H679.29A3.7,3.7,0,0,1,675.59,110.16Z"></path> <path class="cls-3" d="M680.35,44.65H711.1a3.7,3.7,0,1,0,0-7.4H680.35a3.7,3.7,0,1,0,0,7.4Z"></path> <path class="cls-3" d="M443.12,68a3.7,3.7,0,0,0-3.7,3.7V97.21a30.63,30.63,0,0,1-21.16,8.43,30.9,30.9,0,1,1,5.66-61.28,3.7,3.7,0,0,0,1.36-7.27,38.3,38.3,0,1,0-7,76,38,38,0,0,0,27.34-11.48,4.68,4.68,0,0,0,1-1.58,5,5,0,0,0,.18-1.62V71.65A3.7,3.7,0,0,0,443.12,68Z"></path> <path class="cls-3" d="M343,37.25a3.7,3.7,0,0,0-3.7,3.7V98.41L297.62,38.83a2.28,2.28,0,0,0-.21-.26,4.52,4.52,0,0,0-.51-.47,4.06,4.06,0,0,0-.62-.39,3.52,3.52,0,0,0-.64-.25,3.59,3.59,0,0,0-.74-.15l-.31,0-.37,0a3.53,3.53,0,0,0-.72.12,3.37,3.37,0,0,0-.68.28c-.11.06-.21.14-.32.21s-.16.13-.24.2a3.62,3.62,0,0,0-.53.55,3.6,3.6,0,0,0-.65,1.21,3.66,3.66,0,0,0-.15.74c0,.11,0,.2,0,.31v69.2a3.7,3.7,0,0,0,7.4,0V52.7l41.65,59.58a1.7,1.7,0,0,0,.18.21,4.42,4.42,0,0,0,.9.78,3.32,3.32,0,0,0,.38.22,3.64,3.64,0,0,0,1.57.38h0a3.68,3.68,0,0,0,1.28-.26,3.62,3.62,0,0,0,.4-.19,3.11,3.11,0,0,0,.39-.23c.09-.06.18-.14.26-.21a3.42,3.42,0,0,0,1.15-1.76,5.49,5.49,0,0,0,.18-.69,2,2,0,0,0,0-.35V41A3.7,3.7,0,0,0,343,37.25Z"></path> </g> </g> </svg> 