<?xml version="1.0" encoding="utf-8"?>
<!-- Generator: Adobe Illustrator 21.1.0, SVG Export Plug-In . SVG Version: 6.00 Build 0)  -->
<svg version="1.1" id="Слой_1" xmlns="http://www.w3.org/2000/svg" xmlns:xlink="http://www.w3.org/1999/xlink" x="0px" y="0px"
	 viewBox="0 0 595.3 141.7" style="enable-background:new 0 0 595.3 141.7;" xml:space="preserve">
<style type="text/css">
	.st0{fill:#FFFFFF;}
	.st1{fill:#1C97C3;}
	.st2{fill:#FF8000;}
</style>
<g>
	<path class="st0" d="M92.5,47.9c0,5.4-2.7,9.5-8.2,12.2c-4.6,2.3-10.4,3.4-17.6,3.4H47.5L86.4,80c2.1,0.9,3.1,2.2,3.1,4
		c0,2.6-1.6,3.9-4.7,3.9c-3.1,0-5.3-0.1-6.5-0.3l-53-22.7v18.9c0,2.8-1.4,4.1-4.1,4.1h-3.4c-2.7,0-4.1-1.4-4.1-4.1V28.2
		c0-2.7,1.4-4.1,4.1-4.1h46.8c7.3,0,13.2,0.9,17.9,2.8c6.7,2.7,10,7.1,10,13.3V47.9z M80.9,48V40c0-4.2-5.4-6.4-16.3-6.4H25.3V54
		h41.3C76.1,54,80.9,52,80.9,48z"/>
	<path class="st0" d="M173.1,63.7c0,3.1-1,4.6-3.1,4.6h-54.9c0,6.9,4.8,10.4,14.3,10.4h8.3c2.7,0,4.1,1.4,4.1,4.1v1
		c0,2.8-1.4,4.1-4.1,4.1h-7.1c-7.1,0-12.8-0.9-17.3-2.8c-6.4-2.7-9.6-7-9.6-13.1V53.6c0-5.8,3.2-10.1,9.5-12.9c4.6-2,10.3-3,17-3
		h20.7c5.6,0,10.4,0.9,14.4,2.8c5.3,2.5,7.9,6.2,7.9,11.1V63.7z M162.4,58.6v-6.1c0-1.9-2.1-3.3-6.4-4.4c-3-0.7-5.8-1.1-8.6-1.1h-16
		c-11.1,0-16.7,1.9-16.7,5.8v5.7H162.4z"/>
	<path class="st0" d="M257.5,44.4l-35.2,42.5c-1.2,1.4-2.6,2.1-4.2,2.1c-1.6,0-3-0.7-4.1-2l-35.4-42.6c-1-1.2-1.4-2.3-1.4-3.4
		c0-2.2,1.5-3.3,4.6-3.3h3.1c1.3,0,2.4,0.5,3.2,1.5l30,36.6L248,39.2c0.8-1,1.9-1.5,3.2-1.5h3.1c3.1,0,4.6,1.1,4.6,3.3
		C259,42.1,258.5,43.2,257.5,44.4z"/>
	<path class="st0" d="M331.5,72.3c0,5.8-3,10.1-8.9,12.8c-4,1.9-9.2,2.8-15.7,2.8h-18.4c-11.8,0-19.7-2.9-23.5-8.8
		c-1.4-2.1-2.1-4.4-2.1-6.8V53.8c0-4.1,1.9-7.6,5.7-10.6c4.7-3.7,11.3-5.5,19.9-5.5H307c16.4,0,24.5,5.3,24.5,16V72.3z M320.3,72.3
		V53c0-4-4.5-6-13.6-6h-18c-3.3,0-6.2,0.4-8.8,1.2c-3.9,1.2-5.9,3.1-5.9,5.6v18.5c0,2.5,2,4.2,6,5.3c2.6,0.7,5.5,1,8.8,1h18
		c2.9,0,5.6-0.4,8.1-1.2C318.5,76.3,320.3,74.6,320.3,72.3z"/>
	<path class="st0" d="M356.2,83.8c0,2.8-1.4,4.1-4.1,4.1h-2.9c-2.7,0-4.1-1.4-4.1-4.1V28.2c0-2.7,1.4-4.1,4.1-4.1h2.9
		c2.7,0,4.1,1.4,4.1,4.1V83.8z"/>
	<path class="st1" d="M453.9,30.5l-37.7,53.6c-1,1.4-1.9,2.3-2.7,2.8c-1.2,0.7-2.6,1-4.2,1c-2,0-3.8-0.6-5.3-1.9
		c-0.5-0.4-1.1-1.1-1.7-1.9l-37.8-53.7c-0.8-1.1-1.2-2.2-1.2-3.2c0-2.2,1.5-3.2,4.5-3.2h0.5c0.2,0,0.5,0,0.8,0
		c2.9,0,4.7,0.6,5.6,1.7l34.6,49.4l34.4-49.4c0.8-1.2,2.7-1.7,5.5-1.7h0.8c0.2,0,0.4,0,0.5,0c3,0.3,4.5,1.3,4.5,3.3
		C455,28.4,454.7,29.4,453.9,30.5z"/>
	<path class="st1" d="M582,47.9c0,5.4-2.7,9.5-8.2,12.2c-4.6,2.3-10.4,3.4-17.6,3.4H537L575.9,80c2.1,0.9,3.1,2.2,3.1,4
		c0,2.6-1.6,3.9-4.7,3.9c-3.1,0-5.3-0.1-6.5-0.3l-53-22.7v18.9c0,2.8-1.4,4.1-4.1,4.1h-3.4c-2.7,0-4.1-1.4-4.1-4.1V28.2
		c0-2.7,1.4-4.1,4.1-4.1h46.8c7.3,0,13.2,0.9,17.9,2.8c6.7,2.7,10,7.1,10,13.3V47.9z M570.3,48V40c0-4.2-5.4-6.4-16.3-6.4h-39.2V54
		h41.3C565.6,54,570.3,52,570.3,48z"/>
	<g>
		<path class="st0" d="M28.5,110.5c0.5,0.2,0.8,0.6,0.8,1.1c0,0.7-0.4,1-1.3,1h-0.9c-0.2,0-0.3,0-0.5-0.1l-10-4.9v3.9
			c0,0.7-0.4,1.1-1.1,1.1h-0.7c-0.7,0-1.1-0.4-1.1-1.1v-11.1c0-0.7,0.4-1.1,1.1-1.1h0.7c0.7,0,1.1,0.4,1.1,1.1v4.2l9.9-5.2
			c0.2-0.1,0.4-0.1,0.5-0.1h0.8c0.8,0,1.2,0.3,1.2,1c0,0.4-0.3,0.8-0.8,1.1l-9,4.7L28.5,110.5z"/>
		<path class="st0" d="M52.8,111.7c0,0.6-0.4,0.9-1.2,0.9h-0.8c-0.4,0-0.6-0.1-0.8-0.4l-7.9-9.9l-7.9,9.9c-0.2,0.3-0.5,0.4-0.8,0.4
			h-0.8c-0.8,0-1.2-0.3-1.2-0.9c0-0.3,0.1-0.6,0.4-0.9l9.1-11.3c0.3-0.4,0.7-0.5,1.3-0.5c0.6,0,1.1,0.2,1.4,0.6l9,11.2
			C52.7,111.1,52.8,111.4,52.8,111.7z"/>
		<path class="st0" d="M73.4,112.4c0,2.6-2.1,3.9-6.3,3.9h-2.4c-0.7,0-1.1-0.4-1.1-1.1v-0.3c0-0.7,0.4-1.1,1.1-1.1h2.4
			c2.2,0,3.3-0.4,3.3-1.3h-8.7c-4.4,0-6.6-1.3-6.6-4v-8.1c0-0.7,0.4-1.1,1.1-1.1h0.8c0.7,0,1.1,0.4,1.1,1.1v8.1c0,1,1.2,1.5,3.7,1.5
			h8.7v-9.7c0-0.7,0.4-1.1,1.1-1.1h0.8c0.7,0,1.1,0.4,1.1,1.1V112.4z"/>
		<path class="st0" d="M77,99.7c0-1.6,1-2.8,2.9-3.5c1.4-0.5,2.9-0.8,4.8-0.8h1.2c0.7,0,1.1,0.4,1.1,1.1v0.3c0,0.7-0.4,1.1-1.1,1.1
			h-2.1c-0.5,0-1.2,0.1-2.2,0.4c-1.1,0.3-1.6,0.7-1.6,1h8c1.9,0,3.4,0.2,4.7,0.7c1.8,0.7,2.7,1.8,2.7,3.4v4.9c0,1.4-0.7,2.5-2.2,3.2
			c-1.2,0.6-2.7,0.9-4.4,0.9h-4.3c-1.8,0-3.4-0.3-4.7-0.8c-1.9-0.7-2.8-1.9-2.8-3.4V99.7z M79.9,101.8v6.5c0,0.7,0.5,1.2,1.6,1.5
			c0.8,0.2,1.6,0.3,2.4,0.3h4.6c1.1,0,1.8-0.1,2.3-0.2c1-0.2,1.5-0.7,1.5-1.5v-5c0-1.1-1.4-1.7-4.3-1.7H79.9z"/>
		<path class="st0" d="M132,103.9v4.5c0,1.4-0.7,2.5-2.2,3.2c-1.2,0.6-2.7,0.9-4.4,0.9h-4.3c-1.8,0-3.4-0.3-4.7-0.8
			c-1.9-0.7-2.8-1.9-2.8-3.4v-8.7c0-1.6,1-2.8,2.9-3.5c1.4-0.5,2.9-0.8,4.8-0.8h0.5c1.8,0,3.3,0.3,4.7,0.8c1,0.4,1.7,0.8,2.1,1.2
			c0.5,0.5,0.7,1.3,0.7,2.3c0,0.3,0,0.4,0,0.5C131.1,100.9,132,102.1,132,103.9z M116.6,102.2v6.1c0,0.7,0.5,1.2,1.6,1.5
			c0.8,0.2,1.6,0.3,2.4,0.3h4.6c1.1,0,1.8-0.1,2.3-0.2c1-0.2,1.5-0.7,1.5-1.5v-4.6c0-1.1-1.4-1.7-4.3-1.7H116.6z M126.3,99.8v-0.4
			c0-0.4-0.5-0.7-1.6-1c-0.9-0.3-1.7-0.4-2.2-0.4h-2.1c-0.6,0-1.3,0.1-2.1,0.4c-1.1,0.3-1.6,0.7-1.6,1.1v0.4H126.3z"/>
		<path class="st0" d="M136,111.6v-11.2c0-0.7,0.4-1.1,1.1-1.1h0.7c0.7,0,1.1,0.4,1.1,1.1v8.5l12.8-9.4c0.2-0.1,0.4-0.2,0.6-0.2h0.9
			c0.8,0,1.2,0.3,1.2,1v11.2c0,0.7-0.4,1.1-1.1,1.1h-0.7c-0.7,0-1.1-0.4-1.1-1.1v-8.5l-12.8,9.4c-0.2,0.1-0.4,0.2-0.6,0.2h-0.9
			C136.4,112.6,136,112.2,136,111.6z"/>
		<path class="st0" d="M176.8,108.3c0,2.7-2.1,4.1-6.3,4.1h-9.1v2.7c0,0.7-0.4,1.1-1.1,1.1h-0.8c-0.7,0-1.1-0.4-1.1-1.1v-11.9
			c0-1.6,0.8-2.7,2.3-3.3c1-0.4,2.5-0.6,4.4-0.6h4.7c4.7,0,7,1.3,7,3.9V108.3z M173.8,108.4v-5.2c0-0.7-0.5-1.2-1.6-1.4
			c-0.5-0.1-1.3-0.1-2.4-0.1h-4.6c-2.6,0-3.9,0.5-3.9,1.6v6.7h9.1C172.7,110,173.8,109.5,173.8,108.4z"/>
		<path class="st0" d="M194.3,100.3v0.3c0,0.7-0.4,1.1-1.1,1.1h-4.9v9.7c0,0.7-0.4,1.1-1.1,1.1h-0.8c-0.7,0-1.1-0.4-1.1-1.1v-9.7
			h-4.9c-0.7,0-1.1-0.4-1.1-1.1v-0.3c0-0.7,0.4-1.1,1.1-1.1h12.7C194,99.3,194.3,99.6,194.3,100.3z"/>
		<path class="st0" d="M215.3,112.4c0,2.6-2.1,3.9-6.3,3.9h-2.4c-0.7,0-1.1-0.4-1.1-1.1v-0.3c0-0.7,0.4-1.1,1.1-1.1h2.4
			c2.2,0,3.3-0.4,3.3-1.3h-8.7c-4.4,0-6.6-1.3-6.6-4v-8.1c0-0.7,0.4-1.1,1.1-1.1h0.8c0.7,0,1.1,0.4,1.1,1.1v8.1c0,1,1.2,1.5,3.7,1.5
			h8.7v-9.7c0-0.7,0.4-1.1,1.1-1.1h0.8c0.7,0,1.1,0.4,1.1,1.1V112.4z"/>
		<path class="st0" d="M238.3,108.6c0,2.7-2,4-6,4h-7.2c-0.7,0-1.4-0.1-2.3-0.3c-2.7-0.6-4-1.8-4-3.6V107c0-1.4,0.7-2.4,2.2-3.1
			c1.1-0.5,2.4-0.8,4-0.8h10.3c-0.1-0.9-1.3-1.4-3.4-1.4h-2.2c-0.7,0-1.1-0.4-1.1-1.1v-0.3c0-0.7,0.4-1.1,1.1-1.1h1.6
			c4.6,0,7,1.4,7,4.1V108.6z M235.4,108.7v-3.2H225c-0.6,0-1.2,0.1-1.8,0.3c-0.9,0.3-1.3,0.7-1.3,1.1v1.7c0,0.6,0.5,0.9,1.6,1.2
			c0.4,0.1,0.9,0.2,1.7,0.3h7.3C234.4,110.1,235.4,109.6,235.4,108.7z"/>
		<path class="st0" d="M262.2,111.7c0,0.6-0.4,0.9-1.2,0.9h-0.8c-0.4,0-0.6-0.1-0.8-0.4l-7.9-9.9l-7.9,9.9c-0.2,0.3-0.5,0.4-0.8,0.4
			h-0.8c-0.8,0-1.2-0.3-1.2-0.9c0-0.3,0.1-0.6,0.4-0.9l9.1-11.3c0.3-0.4,0.7-0.5,1.3-0.5c0.6,0,1.1,0.2,1.4,0.6l9,11.2
			C262,111.1,262.2,111.4,262.2,111.7z"/>
		<path class="st0" d="M267.3,103.7h9.6c1.6,0,2.9,0.3,3.9,0.8c1.3,0.7,1.9,1.8,1.9,3.3v0.8c0,2.6-2.3,3.9-6.9,3.9h-5.2
			c-4.2,0-6.2-1.3-6.2-4v-8.3c0-0.7,0.4-1.1,1.1-1.1h0.8c0.7,0,1.1,0.4,1.1,1.1V103.7z M276.5,106.1h-9.1v2.4c0,1,1.2,1.6,3.5,1.6
			h5.1c1.2,0,2,0,2.4-0.1c1-0.2,1.5-0.6,1.5-1.4v-0.8C279.8,106.7,278.7,106.1,276.5,106.1z"/>
		<path class="st0" d="M289.4,107.4v4.1c0,0.7-0.4,1.1-1.1,1.1h-0.7c-0.7,0-1.1-0.4-1.1-1.1v-11.1c0-0.7,0.4-1.1,1.1-1.1h0.7
			c0.7,0,1.1,0.4,1.1,1.1v4.6h12.2v-4.6c0-0.7,0.4-1.1,1.1-1.1h0.7c0.7,0,1.1,0.4,1.1,1.1v11.1c0,0.7-0.4,1.1-1.1,1.1h-0.7
			c-0.7,0-1.1-0.4-1.1-1.1v-4.1H289.4z"/>
		<path class="st0" d="M326.3,108.4c0,1.5-0.8,2.7-2.3,3.4c-1.1,0.5-2.4,0.7-4.1,0.7H315c-3.1,0-5.2-0.8-6.2-2.3
			c-0.4-0.6-0.6-1.2-0.6-1.8v-4.9c0-1.1,0.5-2,1.5-2.8c1.2-1,3-1.5,5.3-1.5h4.9c4.3,0,6.5,1.4,6.5,4.2V108.4z M323.3,108.4v-5.1
			c0-1.1-1.2-1.6-3.6-1.6H315c-0.9,0-1.6,0.1-2.3,0.3c-1,0.3-1.6,0.8-1.6,1.5v4.9c0,0.7,0.5,1.1,1.6,1.4c0.7,0.2,1.5,0.3,2.3,0.3
			h4.8c0.8,0,1.5-0.1,2.1-0.3C322.9,109.5,323.3,109,323.3,108.4z"/>
		<path class="st0" d="M330.3,111.6v-11.2c0-0.7,0.4-1.1,1.1-1.1h0.7c0.7,0,1.1,0.4,1.1,1.1v8.5l12.8-9.4c0.2-0.1,0.4-0.2,0.6-0.2
			h0.9c0.8,0,1.2,0.3,1.2,1v11.2c0,0.7-0.4,1.1-1.1,1.1H347c-0.7,0-1.1-0.4-1.1-1.1v-8.5l-12.8,9.4c-0.2,0.1-0.4,0.2-0.6,0.2h-0.9
			C330.7,112.6,330.3,112.2,330.3,111.6z M342.8,98.7c0.7,0,1.1-0.4,1.1-1.1v-0.3c0-0.7-0.4-1.1-1.1-1.1h-6.6
			c-0.7,0-1.1,0.4-1.1,1.1v0.3c0,0.7,0.4,1.1,1.1,1.1H342.8z"/>
		<path class="st0" d="M385.7,108.3c0,2.7-2.1,4.1-6.3,4.1h-9.1v2.7c0,0.7-0.4,1.1-1.1,1.1h-0.8c-0.7,0-1.1-0.4-1.1-1.1v-11.9
			c0-1.6,0.8-2.7,2.3-3.3c1-0.4,2.5-0.6,4.4-0.6h4.7c4.7,0,7,1.3,7,3.9V108.3z M382.8,108.4v-5.2c0-0.7-0.5-1.2-1.6-1.4
			c-0.5-0.1-1.3-0.1-2.4-0.1h-4.6c-2.6,0-3.9,0.5-3.9,1.6v6.7h9.1C381.7,110,382.8,109.5,382.8,108.4z"/>
		<path class="st0" d="M407.7,106.1c0,0.8-0.3,1.2-0.8,1.2h-14.5c0,1.8,1.3,2.8,3.8,2.8h2.2c0.7,0,1.1,0.4,1.1,1.1v0.3
			c0,0.7-0.4,1.1-1.1,1.1h-1.9c-1.9,0-3.4-0.2-4.6-0.7c-1.7-0.7-2.5-1.9-2.5-3.5v-4.9c0-1.5,0.8-2.7,2.5-3.4
			c1.2-0.5,2.7-0.8,4.5-0.8h5.5c1.5,0,2.7,0.3,3.8,0.8c1.4,0.7,2.1,1.6,2.1,2.9V106.1z M404.8,104.8v-1.6c0-0.5-0.6-0.9-1.7-1.2
			c-0.8-0.2-1.5-0.3-2.3-0.3h-4.2c-2.9,0-4.4,0.5-4.4,1.5v1.5H404.8z"/>
		<path class="st0" d="M430.6,108.6c0,2.7-2,4-6,4h-7.2c-0.7,0-1.4-0.1-2.3-0.3c-2.7-0.6-4-1.8-4-3.6V107c0-1.4,0.7-2.4,2.2-3.1
			c1.1-0.5,2.4-0.8,4-0.8h10.3c-0.1-0.9-1.3-1.4-3.4-1.4H422c-0.7,0-1.1-0.4-1.1-1.1v-0.3c0-0.7,0.4-1.1,1.1-1.1h1.6
			c4.6,0,7,1.4,7,4.1V108.6z M427.6,108.7v-3.2h-10.4c-0.6,0-1.2,0.1-1.8,0.3c-0.9,0.3-1.3,0.7-1.3,1.1v1.7c0,0.6,0.5,0.9,1.6,1.2
			c0.4,0.1,0.9,0.2,1.7,0.3h7.3C426.6,110.1,427.6,109.6,427.6,108.7z"/>
		<path class="st0" d="M454.4,111.7c0,0.6-0.4,0.9-1.2,0.9h-0.8c-0.4,0-0.6-0.1-0.8-0.4l-7.9-9.9l-7.9,9.9c-0.2,0.3-0.5,0.4-0.8,0.4
			H434c-0.8,0-1.2-0.3-1.2-0.9c0-0.3,0.1-0.6,0.4-0.9l9.1-11.3c0.3-0.4,0.7-0.5,1.3-0.5c0.6,0,1.1,0.2,1.4,0.6l9,11.2
			C454.2,111.1,454.4,111.4,454.4,111.7z"/>
		<path class="st0" d="M459.6,103.7h9.6c1.6,0,2.9,0.3,3.9,0.8c1.3,0.7,1.9,1.8,1.9,3.3v0.8c0,2.6-2.3,3.9-6.9,3.9h-5.2
			c-4.2,0-6.2-1.3-6.2-4v-8.3c0-0.7,0.4-1.1,1.1-1.1h0.8c0.7,0,1.1,0.4,1.1,1.1V103.7z M468.7,106.1h-9.1v2.4c0,1,1.2,1.6,3.5,1.6
			h5.1c1.1,0,2,0,2.4-0.1c1-0.2,1.5-0.6,1.5-1.4v-0.8C472.1,106.7,470.9,106.1,468.7,106.1z"/>
		<path class="st0" d="M481.6,107.4v4.1c0,0.7-0.4,1.1-1.1,1.1h-0.7c-0.7,0-1.1-0.4-1.1-1.1v-11.1c0-0.7,0.4-1.1,1.1-1.1h0.7
			c0.7,0,1.1,0.4,1.1,1.1v4.6h12.2v-4.6c0-0.7,0.4-1.1,1.1-1.1h0.7c0.7,0,1.1,0.4,1.1,1.1v11.1c0,0.7-0.4,1.1-1.1,1.1H495
			c-0.7,0-1.1-0.4-1.1-1.1v-4.1H481.6z"/>
		<path class="st0" d="M518.6,108.4c0,1.5-0.8,2.7-2.3,3.4c-1.1,0.5-2.4,0.7-4.1,0.7h-4.9c-3.1,0-5.2-0.8-6.2-2.3
			c-0.4-0.6-0.6-1.2-0.6-1.8v-4.9c0-1.1,0.5-2,1.5-2.8c1.2-1,3-1.5,5.3-1.5h4.9c4.3,0,6.5,1.4,6.5,4.2V108.4z M515.6,108.4v-5.1
			c0-1.1-1.2-1.6-3.6-1.6h-4.8c-0.9,0-1.6,0.1-2.3,0.3c-1,0.3-1.6,0.8-1.6,1.5v4.9c0,0.7,0.5,1.1,1.6,1.4c0.7,0.2,1.5,0.3,2.3,0.3
			h4.8c0.8,0,1.5-0.1,2.1-0.3C515.1,109.5,515.6,109,515.6,108.4z"/>
		<path class="st0" d="M541,111.5c0,0.7-0.5,1.1-1.4,1.1h-10.8c-2,0-3.5-0.2-4.5-0.6c-1.6-0.6-2.4-1.8-2.4-3.4v-5.2
			c0-2.7,2.1-4,6.2-4h11.6c0.7,0,1.1,0.4,1.1,1.1v0.3c0,0.7-0.4,1.1-1.1,1.1h-11.4c-1,0-1.7,0.1-2.2,0.2c-0.9,0.2-1.3,0.7-1.3,1.3
			v5.2c0,1.1,1.3,1.7,4,1.7h11c0.7,0,1.1,0.4,1.1,1.1V111.5z"/>
		<path class="st0" d="M558.2,100.3v0.3c0,0.7-0.4,1.1-1.1,1.1h-4.9v9.7c0,0.7-0.4,1.1-1.1,1.1h-0.8c-0.7,0-1.1-0.4-1.1-1.1v-9.7
			h-4.9c-0.7,0-1.1-0.4-1.1-1.1v-0.3c0-0.7,0.4-1.1,1.1-1.1h12.7C557.9,99.3,558.2,99.6,558.2,100.3z"/>
		<path class="st0" d="M561.2,111.6v-11.2c0-0.7,0.4-1.1,1.1-1.1h0.7c0.7,0,1.1,0.4,1.1,1.1v8.5l12.8-9.4c0.2-0.1,0.4-0.2,0.6-0.2
			h0.9c0.8,0,1.2,0.3,1.2,1v11.2c0,0.7-0.4,1.1-1.1,1.1h-0.7c-0.7,0-1.1-0.4-1.1-1.1v-8.5l-12.8,9.4c-0.2,0.1-0.4,0.2-0.6,0.2h-0.9
			C561.6,112.6,561.2,112.2,561.2,111.6z"/>
	</g>
	<path class="st2" d="M308.6,56.4c1.3,0,3.6,1.5,3.6,4.6v3.2c0,3.1-2,4.5-3.4,4.5l-23,0.1c-1.4,0-3.5-1.5-3.5-4.6V61
		c0-3.1,1.9-4.6,3.3-4.6L308.6,56.4z"/>
	<g>
		<g>
			<path class="st2" d="M458.6,55.4c-1.4,0-3.4,0.9-3.4,2.8v1.2v1.2c0,1.9,2,2.8,3.4,2.8h17.8v-8.1H458.6z"/>
			<path class="st2" d="M491.4,58.2c-1.3-1.7-5.5-2.7-10-2.8v8.1c4.5-0.1,8.7-1.1,10-2.8c0.4-0.5,0.6-0.9,0.7-1.2
				C492.1,59.1,491.8,58.7,491.4,58.2z"/>
		</g>
		<g>
			<path class="st2" d="M458.6,67.8c-1.4,0-3.4,0.9-3.4,2.8v1.2v1.2c0,1.9,2,2.8,3.4,2.8h17.8v-8.1H458.6z"/>
			<path class="st2" d="M491.4,70.6c-1.3-1.7-5.5-2.7-10-2.8v8.1c4.5-0.1,8.7-1.1,10-2.8c0.4-0.5,0.6-0.9,0.7-1.2
				C492.1,71.5,491.8,71.1,491.4,70.6z"/>
		</g>
		<g>
			<path class="st2" d="M458.6,80.2c-1.4,0-3.4,0.9-3.4,2.8v1.2v1.2c0,1.9,2,2.8,3.4,2.8h17.8v-8.1H458.6z"/>
			<path class="st2" d="M491.4,83c-1.3-1.7-5.5-2.7-10-2.8v8.1c4.5-0.1,8.7-1.1,10-2.8c0.4-0.5,0.6-0.9,0.7-1.2
				C492.1,83.9,491.8,83.5,491.4,83z"/>
		</g>
	</g>
</g>
</svg>
